<svg xmlns="http://www.w3.org/2000/svg" xmlns:xlink="http://www.w3.org/1999/xlink" version="1.1" x="0px" y="0px" viewBox="0 0 100 100" enable-background="new 0 0 100 100" xml:space="preserve" fill="coral"><path d="M89.4,18.2H76.3H63.2H50.1H37H23.9H10.7c-1,0-1.8,0.8-1.8,1.8v11v37.9v11c0,1,0.8,1.8,1.8,1.8h13.1H37h13.1h13.1h13.1h13.1  c1,0,1.8-0.8,1.8-1.8v-11V31V20C91.3,19,90.4,18.2,89.4,18.2z M76.3,67H63.2H50.1H37H23.9H12.6V32.8h11.3H37h13.1h13.1h13.1h11.3V67  H76.3z M87.6,29.1h-9.4v-7.3h9.4V29.1z M74.5,29.1H65v-7.3h9.4V29.1z M61.3,29.1h-9.4v-7.3h9.4V29.1z M48.2,29.1h-9.4v-7.3h9.4V29.1  z M35.1,29.1h-9.4v-7.3h9.4V29.1z M12.6,21.9H22v7.3h-9.4V21.9z M12.6,70.7H22V78h-9.4V70.7z M25.7,70.7h9.4V78h-9.4V70.7z   M38.8,70.7h9.4V78h-9.4V70.7z M51.9,70.7h9.4V78h-9.4V70.7z M65,70.7h9.4V78H65V70.7z M87.6,78h-9.4v-7.3h9.4V78z M60.2,48.2  l-15.5-9c-0.6-0.3-1.3-0.3-1.8,0c-0.6,0.3-0.9,0.9-0.9,1.6v17.9c0,0.7,0.4,1.3,0.9,1.6c0.3,0.2,0.6,0.2,0.9,0.2  c0.3,0,0.6-0.1,0.9-0.2l15.5-9c0.6-0.3,0.9-0.9,0.9-1.6C61.1,49.2,60.7,48.6,60.2,48.2z M45.6,55.6V44.1l10,5.8L45.6,55.6z"></path></svg>